Playfair Display-Bold Italic.ufo
<glyph name="t" format="1">
  <advance width="365"/>
  <unicode hex="0074"/>
  <outline>
    <contour>
      <point x="420" y="519" type="line"/>
      <point x="51" y="519" type="line"/>
      <point x="46" y="499" type="line"/>
      <point x="417" y="499" type="line"/>
    </contour>
    <contour>
      <point x="193" y="85" type="curve" smooth="yes"/>
      <point x="367" y="680" type="line"/>
      <point x="312" y="671"/>
      <point x="258" y="667"/>
      <point x="185" y="666" type="curve"/>
      <point x="39" y="158" type="line" smooth="yes"/>
      <point x="12" y="64"/>
      <point x="39" y="-14"/>
      <point x="140" y="-14" type="curve" smooth="yes"/>
      <point x="217" y="-14"/>
      <point x="273" y="31"/>
      <point x="299" y="107" type="curve" smooth="yes"/>
      <point x="318" y="162" type="line"/>
      <point x="299" y="162" type="line"/>
      <point x="283" y="119" type="line" smooth="yes"/>
      <point x="267" y="76"/>
      <point x="238" y="43"/>
      <point x="211" y="43" type="curve" smooth="yes"/>
      <point x="193" y="43"/>
      <point x="185" y="57"/>
    </contour>
    <contour>
      <point x="117" y="0" type="move" name="bottom"/>
    </contour>
    <contour>
      <point x="181" y="348" type="move" name="center"/>
    </contour>
    <contour>
      <point x="299" y="771" type="move" name="top"/>
    </contour>
    <contour>
      <point x="375" y="791" type="move" name="topright"/>
    </contour>
  </outline>
</glyph>
<glyph name="longs" format="1">
  <advance width="355"/>
  <unicode hex="017F"/>
  <outline>
    <contour>
      <point x="47" y="499" type="line"/>
      <point x="212" y="499" type="line"/>
      <point x="218" y="519" type="line"/>
      <point x="53" y="519" type="line"/>
    </contour>
    <contour>
      <point x="440" y="762" type="curve" smooth="yes"/>
      <point x="449" y="762"/>
      <point x="457" y="760"/>
      <point x="466" y="756" type="curve"/>
      <point x="410" y="735"/>
      <point x="377" y="689"/>
      <point x="377" y="638" type="curve" smooth="yes"/>
      <point x="377" y="594"/>
      <point x="408" y="570"/>
      <point x="457" y="570" type="curve" smooth="yes"/>
      <point x="522" y="570"/>
      <point x="565" y="623"/>
      <point x="565" y="670" type="curve" smooth="yes"/>
      <point x="565" y="739"/>
      <point x="506" y="782"/>
      <point x="408" y="782" type="curve" smooth="yes"/>
      <point x="349" y="782"/>
      <point x="299" y="769"/>
      <point x="257" y="738" type="curve" smooth="yes"/>
      <point x="200" y="696"/>
      <point x="158" y="621"/>
      <point x="128" y="504" type="curve" smooth="yes"/>
      <point x="-58" y="-188" type="line"/>
      <point x="-2" y="-179"/>
      <point x="51" y="-175"/>
      <point x="123" y="-174" type="curve"/>
      <point x="343" y="647" type="line" smooth="yes"/>
      <point x="357" y="700"/>
      <point x="372" y="730"/>
      <point x="391" y="746" type="curve" smooth="yes"/>
      <point x="405" y="758"/>
      <point x="421" y="762"/>
    </contour>
    <contour>
      <point x="309" y="771" type="move" name="top"/>
    </contour>
  </outline>
</glyph>
<glyph name="uni018F" format="1">
  <advance width="790"/>
  <unicode hex="018F"/>
  <outline>
    <contour>
      <point x="296" y="-14" type="curve" smooth="yes"/>
      <point x="590" y="-14"/>
      <point x="787" y="257"/>
      <point x="787" y="472" type="curve" smooth="yes"/>
      <point x="787" y="628"/>
      <point x="683" y="723"/>
      <point x="489" y="723" type="curve" smooth="yes"/>
      <point x="347" y="723"/>
      <point x="272" y="673"/>
      <point x="240" y="657" type="curve" smooth="yes"/>
      <point x="228" y="651"/>
      <point x="222" y="649"/>
      <point x="217" y="649" type="curve" smooth="yes"/>
      <point x="209" y="649"/>
      <point x="205" y="657"/>
      <point x="205" y="673" type="curve" smooth="yes"/>
      <point x="205" y="681"/>
      <point x="206" y="690"/>
      <point x="208" y="708" type="curve"/>
      <point x="185" y="708" type="line"/>
      <point x="175" y="637"/>
      <point x="156" y="556"/>
      <point x="129" y="468" type="curve"/>
      <point x="152" y="468" type="line"/>
      <point x="186" y="566"/>
      <point x="226" y="629"/>
      <point x="292" y="662" type="curve" smooth="yes"/>
      <point x="326" y="679"/>
      <point x="366" y="687"/>
      <point x="406" y="687" type="curve" smooth="yes"/>
      <point x="523" y="687"/>
      <point x="568" y="617"/>
      <point x="568" y="481" type="curve" smooth="yes"/>
      <point x="568" y="248"/>
      <point x="435" y="4"/>
      <point x="325" y="4" type="curve" smooth="yes"/>
      <point x="272" y="4"/>
      <point x="244" y="87"/>
      <point x="244" y="208" type="curve" smooth="yes"/>
      <point x="244" y="255"/>
      <point x="250" y="301"/>
      <point x="261" y="347" type="curve"/>
      <point x="613" y="347" type="line"/>
      <point x="615" y="366" type="line"/>
      <point x="57" y="366" type="line"/>
      <point x="42" y="319"/>
      <point x="34" y="266"/>
      <point x="34" y="226" type="curve" smooth="yes"/>
      <point x="34" y="77"/>
      <point x="138" y="-14"/>
    </contour>
    <contour>
      <point x="332" y="0" type="move" name="bottom"/>
    </contour>
    <contour>
      <point x="500" y="708" type="move" name="top"/>
    </contour>
  </outline>
</glyph>
<glyph name="Ohorn" format="1">
  <advance width="809"/>
  <unicode hex="01A0"/>
  <outline>
    <contour>
      <point x="606" y="686" type="line"/>
      <point x="739" y="665"/>
      <point x="836" y="687"/>
      <point x="880" y="707" type="curve" smooth="yes"/>
      <point x="922" y="726"/>
      <point x="942" y="756"/>
      <point x="942" y="794" type="curve" smooth="yes"/>
      <point x="942" y="846"/>
      <point x="904" y="876"/>
      <point x="862" y="876" type="curve" smooth="yes"/>
      <point x="821" y="876"/>
      <point x="785" y="847"/>
      <point x="785" y="800" type="curve" smooth="yes"/>
      <point x="785" y="756"/>
      <point x="819" y="726"/>
      <point x="853" y="711" type="curve"/>
      <point x="856" y="720" type="line"/>
      <point x="793" y="699"/>
      <point x="724" y="690"/>
      <point x="601" y="706" type="curve"/>
    </contour>
    <component base="O"/>
  </outline>
</glyph>
<glyph name="Uhorn" format="1">
  <advance width="702"/>
  <unicode hex="01AF"/>
  <outline>
    <contour>
      <point x="301" y="-14" type="curve" smooth="yes"/>
      <point x="402" y="-14"/>
      <point x="470" y="23"/>
      <point x="518" y="79" type="curve" smooth="yes"/>
      <point x="566" y="135"/>
      <point x="594" y="211"/>
      <point x="615" y="291" type="curve" smooth="yes"/>
      <point x="719" y="690" type="line"/>
      <point x="711" y="685" type="line"/>
      <point x="744" y="687"/>
      <point x="778" y="696"/>
      <point x="812" y="713" type="curve" smooth="yes"/>
      <point x="848" y="731"/>
      <point x="874" y="760"/>
      <point x="874" y="801" type="curve" smooth="yes"/>
      <point x="874" y="851"/>
      <point x="836" y="882"/>
      <point x="794" y="882" type="curve" smooth="yes"/>
      <point x="753" y="882"/>
      <point x="717" y="853"/>
      <point x="717" y="806" type="curve" smooth="yes"/>
      <point x="717" y="762"/>
      <point x="751" y="732"/>
      <point x="785" y="717" type="curve"/>
      <point x="788" y="725" type="line"/>
      <point x="756" y="707"/>
      <point x="723" y="704"/>
      <point x="672" y="704" type="curve" smooth="yes"/>
      <point x="642" y="704"/>
      <point x="629" y="706"/>
      <point x="599" y="708" type="curve"/>
      <point x="594" y="688" type="line"/>
      <point x="627" y="684"/>
      <point x="663" y="684"/>
      <point x="698" y="684" type="curve"/>
      <point x="696" y="690" type="line"/>
      <point x="590" y="280" type="line" smooth="yes"/>
      <point x="553" y="136"/>
      <point x="475" y="21"/>
      <point x="350" y="21" type="curve" smooth="yes"/>
      <point x="259" y="21"/>
      <point x="236" y="82"/>
      <point x="286" y="271" type="curve" smooth="yes"/>
      <point x="374" y="602" type="line" smooth="yes"/>
      <point x="393" y="675"/>
      <point x="408" y="685"/>
      <point x="477" y="688" type="curve"/>
      <point x="483" y="708" type="line"/>
      <point x="436" y="706"/>
      <point x="375" y="705"/>
      <point x="304" y="705" type="curve" smooth="yes"/>
      <point x="233" y="705"/>
      <point x="158" y="706"/>
      <point x="119" y="708" type="curve"/>
      <point x="113" y="688" type="line"/>
      <point x="180" y="685"/>
      <point x="191" y="675"/>
      <point x="172" y="602" type="curve" smooth="yes"/>
      <point x="89" y="288" type="line" smooth="yes"/>
      <point x="66" y="201"/>
      <point x="62" y="132"/>
      <point x="91" y="81" type="curve" smooth="yes"/>
      <point x="123" y="25"/>
      <point x="197" y="-14"/>
    </contour>
    <contour>
      <point x="323" y="0" type="move" name="bottom"/>
    </contour>
    <contour>
      <point x="400" y="0" type="move" name="ogonek"/>
    </contour>
    <contour>
      <point x="495" y="708" type="move" name="top"/>
    </contour>
  </outline>
</glyph>
<glyph name="uni01E5" format="1">
  <advance width="487"/>
  <unicode hex="01E5"/>
  <outline>
    <contour>
      <point x="470" y="-85" type="line"/>
      <point x="-178" y="-85" type="line"/>
      <point x="-182" y="-105" type="line"/>
      <point x="466" y="-105" type="line"/>
    </contour>
    <component base="g"/>
  </outline>
</glyph>
<glyph name="uni0259" format="1">
  <advance width="542"/>
  <unicode hex="0259"/>
  <outline>
    <contour>
      <point x="325" y="231" type="curve"/>
      <point x="333" y="244" type="line"/>
      <point x="315" y="284"/>
      <point x="276" y="312"/>
      <point x="210" y="312" type="curve" smooth="yes"/>
      <point x="92" y="312"/>
      <point x="6" y="224"/>
      <point x="6" y="118" type="curve" smooth="yes"/>
      <point x="6" y="30"/>
      <point x="66" y="-14"/>
      <point x="164" y="-14" type="curve" smooth="yes"/>
      <point x="355" y="-14"/>
      <point x="515" y="154"/>
      <point x="515" y="350" type="curve" smooth="yes"/>
      <point x="515" y="470"/>
      <point x="454" y="533"/>
      <point x="339" y="533" type="curve" smooth="yes"/>
      <point x="237" y="533"/>
      <point x="142" y="483"/>
      <point x="86" y="399" type="curve"/>
      <point x="102" y="391" type="line"/>
      <point x="149" y="435"/>
      <point x="203" y="461"/>
      <point x="249" y="461" type="curve" smooth="yes"/>
      <point x="301" y="461"/>
      <point x="325" y="429"/>
      <point x="325" y="359" type="curve" smooth="yes"/>
      <point x="325" y="223"/>
      <point x="234" y="6"/>
      <point x="177" y="6" type="curve" smooth="yes"/>
      <point x="160" y="6"/>
      <point x="154" y="24"/>
      <point x="154" y="66" type="curve" smooth="yes"/>
      <point x="154" y="185"/>
      <point x="201" y="278"/>
      <point x="260" y="278" type="curve" smooth="yes"/>
      <point x="290" y="278"/>
      <point x="316" y="254"/>
    </contour>
    <contour>
      <point x="175" y="0" type="move" name="bottom"/>
    </contour>
    <contour>
      <point x="334" y="519" type="move" name="top"/>
    </contour>
  </outline>
</glyph>
<glyph name="uni0292" format="1">
  <advance width="502"/>
  <unicode hex="0292"/>
  <outline>
    <contour>
      <point x="125" y="-191" type="curve" smooth="yes"/>
      <point x="272" y="-191"/>
      <point x="431" y="-91"/>
      <point x="431" y="49" type="curve" smooth="yes"/>
      <point x="431" y="154"/>
      <point x="341" y="205"/>
      <point x="215" y="208" type="curve"/>
      <point x="212" y="201" type="line"/>
      <point x="556" y="518" type="line"/>
      <point x="525" y="518" type="line"/>
      <point x="498" y="483"/>
      <point x="474" y="471"/>
      <point x="433" y="471" type="curve" smooth="yes"/>
      <point x="346" y="471"/>
      <point x="318" y="528"/>
      <point x="223" y="528" type="curve" smooth="yes"/>
      <point x="118" y="528"/>
      <point x="63" y="458"/>
      <point x="63" y="390" type="curve" smooth="yes"/>
      <point x="63" y="332"/>
      <point x="103" y="298"/>
      <point x="174" y="282" type="curve"/>
      <point x="180" y="297" type="line"/>
      <point x="149" y="311"/>
      <point x="136" y="322"/>
      <point x="136" y="342" type="curve" smooth="yes"/>
      <point x="136" y="361"/>
      <point x="148" y="369"/>
      <point x="162" y="369" type="curve" smooth="yes"/>
      <point x="190" y="369"/>
      <point x="204" y="337"/>
      <point x="244" y="337" type="curve" smooth="yes"/>
      <point x="312" y="337"/>
      <point x="385" y="431"/>
      <point x="468" y="461" type="curve"/>
      <point x="182" y="202" type="line"/>
      <point x="196" y="209" type="line"/>
      <point x="172" y="209"/>
      <point x="131" y="200"/>
      <point x="131" y="178" type="curve" smooth="yes"/>
      <point x="131" y="169"/>
      <point x="137" y="163"/>
      <point x="150" y="163" type="curve" smooth="yes"/>
      <point x="166" y="163"/>
      <point x="184" y="172"/>
      <point x="208" y="196" type="curve"/>
      <point x="221" y="180"/>
      <point x="245" y="130"/>
      <point x="245" y="52" type="curve" smooth="yes"/>
      <point x="245" y="-92"/>
      <point x="163" y="-161"/>
      <point x="83" y="-161" type="curve" smooth="yes"/>
      <point x="66" y="-161"/>
      <point x="47" y="-158"/>
      <point x="37" y="-150" type="curve"/>
      <point x="97" y="-139"/>
      <point x="142" y="-85"/>
      <point x="142" y="-30" type="curve" smooth="yes"/>
      <point x="142" y="18"/>
      <point x="107" y="42"/>
      <point x="57" y="42" type="curve" smooth="yes"/>
      <point x="-20" y="42"/>
      <point x="-54" y="-15"/>
      <point x="-54" y="-61" type="curve" smooth="yes"/>
      <point x="-54" y="-100"/>
      <point x="-30" y="-134"/>
      <point x="0" y="-156" type="curve" smooth="yes"/>
      <point x="33" y="-180"/>
      <point x="76" y="-191"/>
    </contour>
    <contour>
      <point x="299" y="519" type="move" name="top"/>
    </contour>
  </outline>
</glyph>
<glyph name="uni0302" format="1">
  <advance width="432"/>
  <unicode hex="0302"/>
  <outline>
    <contour>
      <point x="300" y="660" type="curve"/>
      <point x="353" y="638"/>
      <point x="408" y="622"/>
      <point x="498" y="606" type="curve"/>
      <point x="502" y="620" type="line"/>
      <point x="435" y="671"/>
      <point x="404" y="734"/>
      <point x="383" y="832" type="curve"/>
      <point x="365" y="832" type="line"/>
      <point x="310" y="749"/>
      <point x="215" y="666"/>
      <point x="110" y="620" type="curve"/>
      <point x="115" y="606" type="line"/>
      <point x="184" y="620"/>
      <point x="250" y="639"/>
    </contour>
    <contour>
      <point x="298" y="519" type="move" name="_top"/>
    </contour>
    <contour>
      <point x="440" y="728" type="move" name="right"/>
    </contour>
    <contour>
      <point x="358" y="758" type="move" name="top"/>
    </contour>
  </outline>
</glyph>
<glyph name="uni0304" format="1">
  <advance width="392"/>
  <unicode hex="0304"/>
  <outline>
    <contour>
      <point x="485" y="712" type="line"/>
      <point x="133" y="712" type="line"/>
      <point x="127" y="687" type="line"/>
      <point x="479" y="687" type="line"/>
    </contour>
    <contour>
      <point x="268" y="519" type="move" name="_top"/>
    </contour>
    <contour>
      <point x="328" y="758" type="move" name="top"/>
    </contour>
  </outline>
</glyph>
<glyph name="uni0307" format="1">
  <advance width="249"/>
  <unicode hex="0307"/>
  <outline>
    <contour>
      <point x="128" y="676" type="curve" smooth="yes"/>
      <point x="128" y="633"/>
      <point x="158" y="610"/>
      <point x="216" y="610" type="curve" smooth="yes"/>
      <point x="285" y="610"/>
      <point x="339" y="651"/>
      <point x="339" y="714" type="curve" smooth="yes"/>
      <point x="339" y="759"/>
      <point x="308" y="782"/>
      <point x="250" y="782" type="curve" smooth="yes"/>
      <point x="180" y="782"/>
      <point x="128" y="748"/>
    </contour>
    <contour>
      <point x="194" y="519" type="move" name="_top"/>
    </contour>
    <contour>
      <point x="254" y="758" type="move" name="top"/>
    </contour>
  </outline>
</glyph>
<glyph name="uni030A" format="1">
  <advance width="275"/>
  <unicode hex="030A"/>
  <outline>
    <contour>
      <point x="259" y="801" type="curve" smooth="yes"/>
      <point x="187" y="801"/>
      <point x="130" y="752"/>
      <point x="130" y="688" type="curve" smooth="yes"/>
      <point x="130" y="632"/>
      <point x="174" y="598"/>
      <point x="232" y="598" type="curve" smooth="yes"/>
      <point x="302" y="598"/>
      <point x="365" y="649"/>
      <point x="365" y="712" type="curve" smooth="yes"/>
      <point x="365" y="766"/>
      <point x="319" y="801"/>
    </contour>
    <contour>
      <point x="237" y="619" type="curve" smooth="yes"/>
      <point x="197" y="619"/>
      <point x="157" y="643"/>
      <point x="157" y="688" type="curve" smooth="yes"/>
      <point x="157" y="736"/>
      <point x="202" y="780"/>
      <point x="256" y="780" type="curve" smooth="yes"/>
      <point x="295" y="780"/>
      <point x="339" y="758"/>
      <point x="339" y="710" type="curve" smooth="yes"/>
      <point x="339" y="659"/>
      <point x="289" y="619"/>
    </contour>
    <contour>
      <point x="202" y="519" type="move" name="_top"/>
    </contour>
    <contour>
      <point x="262" y="758" type="move" name="top"/>
    </contour>
  </outline>
</glyph>
<glyph name="uni030B" format="1">
  <advance width="367"/>
  <unicode hex="030B"/>
  <outline>
    <contour>
      <point x="106" y="605" type="curve"/>
      <point x="118" y="598" type="line"/>
      <point x="198" y="661"/>
      <point x="247" y="679"/>
      <point x="273" y="712" type="curve" smooth="yes"/>
      <point x="298" y="741"/>
      <point x="296" y="779"/>
      <point x="268" y="803" type="curve" smooth="yes"/>
      <point x="236" y="828"/>
      <point x="192" y="822"/>
      <point x="170" y="793" type="curve" smooth="yes"/>
      <point x="145" y="758"/>
      <point x="145" y="704"/>
    </contour>
    <contour>
      <point x="285" y="605" type="curve"/>
      <point x="297" y="598" type="line"/>
      <point x="377" y="661"/>
      <point x="426" y="679"/>
      <point x="452" y="712" type="curve"/>
      <point x="477" y="741"/>
      <point x="475" y="779"/>
      <point x="447" y="803" type="curve"/>
      <point x="415" y="828"/>
      <point x="371" y="822"/>
      <point x="349" y="793" type="curve" smooth="yes"/>
      <point x="324" y="758"/>
      <point x="324" y="704"/>
    </contour>
    <contour>
      <point x="217" y="519" type="move" name="_top"/>
    </contour>
    <contour>
      <point x="277" y="758" type="move" name="top"/>
    </contour>
  </outline>
</glyph>
<glyph name="uni030C" format="1">
  <advance width="432"/>
  <unicode hex="030C"/>
  <outline>
    <contour>
      <point x="361" y="778" type="curve"/>
      <point x="308" y="800"/>
      <point x="253" y="816"/>
      <point x="163" y="832" type="curve"/>
      <point x="159" y="818" type="line"/>
      <point x="226" y="767"/>
      <point x="257" y="704"/>
      <point x="278" y="606" type="curve"/>
      <point x="296" y="606" type="line"/>
      <point x="351" y="689"/>
      <point x="446" y="772"/>
      <point x="551" y="818" type="curve"/>
      <point x="546" y="832" type="line"/>
      <point x="477" y="818"/>
      <point x="411" y="799"/>
    </contour>
    <contour>
      <point x="276" y="519" type="move" name="_top"/>
    </contour>
    <contour>
      <point x="336" y="758" type="move" name="top"/>
    </contour>
  </outline>
</glyph>
<glyph name="dotbelowcomb" format="1">
  <advance width="198"/>
  <unicode hex="0323"/>
  <outline>
    <contour>
      <point x="-7" y="-191" type="curve" smooth="yes"/>
      <point x="56" y="-191"/>
      <point x="94" y="-158"/>
      <point x="94" y="-101" type="curve" smooth="yes"/>
      <point x="94" y="-64"/>
      <point x="68" y="-45"/>
      <point x="20" y="-45" type="curve" smooth="yes"/>
      <point x="-43" y="-45"/>
      <point x="-81" y="-78"/>
      <point x="-81" y="-135" type="curve" smooth="yes"/>
      <point x="-81" y="-172"/>
      <point x="-55" y="-191"/>
    </contour>
    <contour>
      <point x="24" y="0" type="move" name="_bottom"/>
    </contour>
    <contour>
      <point x="-13" y="-191" type="move" name="bottom"/>
    </contour>
  </outline>
</glyph>
<glyph name="uni0326" format="1">
  <advance width="224"/>
  <unicode hex="0326"/>
  <outline>
    <contour>
      <point x="32" y="-42" type="curve" smooth="yes"/>
      <point x="-26" y="-42"/>
      <point x="-75" y="-77"/>
      <point x="-75" y="-131" type="curve" smooth="yes"/>
      <point x="-75" y="-167"/>
      <point x="-50" y="-184"/>
      <point x="-5" y="-184" type="curve" smooth="yes"/>
      <point x="23" y="-184"/>
      <point x="45" y="-177"/>
      <point x="62" y="-166" type="curve"/>
      <point x="52" y="-198"/>
      <point x="8" y="-219"/>
      <point x="-55" y="-220" type="curve"/>
      <point x="-55" y="-241" type="line"/>
      <point x="40" y="-239"/>
      <point x="109" y="-187"/>
      <point x="109" y="-106" type="curve" smooth="yes"/>
      <point x="109" y="-59"/>
      <point x="68" y="-42"/>
    </contour>
    <contour>
      <point x="45" y="0" type="move" name="_bottom"/>
    </contour>
  </outline>
</glyph>
<glyph name="uni0327" format="1">
  <advance width="311"/>
  <unicode hex="0327"/>
  <outline>
    <contour>
      <point x="116" y="0" type="line"/>
      <point x="87" y="0" type="line"/>
      <point x="3" y="-106" type="line"/>
      <point x="13" y="-101"/>
      <point x="27" y="-99"/>
      <point x="34" y="-99" type="curve" smooth="yes"/>
      <point x="51" y="-99"/>
      <point x="62" y="-108"/>
      <point x="62" y="-122" type="curve" smooth="yes"/>
      <point x="62" y="-159"/>
      <point x="4" y="-164"/>
      <point x="-20" y="-164" type="curve" smooth="yes"/>
      <point x="-48" y="-164"/>
      <point x="-71" y="-157"/>
      <point x="-81" y="-154" type="curve"/>
      <point x="-87" y="-170" type="line"/>
      <point x="-71" y="-177"/>
      <point x="-35" y="-188"/>
      <point x="9" y="-188" type="curve" smooth="yes"/>
      <point x="101" y="-188"/>
      <point x="200" y="-164"/>
      <point x="200" y="-98" type="curve" smooth="yes"/>
      <point x="200" y="-68"/>
      <point x="167" y="-55"/>
      <point x="128" y="-55" type="curve" smooth="yes"/>
      <point x="108" y="-55"/>
      <point x="84" y="-61"/>
      <point x="66" y="-67" type="curve"/>
    </contour>
    <contour>
      <point x="100" y="0" type="move" name="_bottom"/>
    </contour>
  </outline>
</glyph>
<glyph name="uni0335" format="1">
  <advance width="455"/>
  <unicode hex="0335"/>
  <outline>
    <contour>
      <point x="527" y="628" type="line"/>
      <point x="113" y="628" type="line"/>
      <point x="107" y="608" type="line"/>
      <point x="521" y="608" type="line"/>
    </contour>
    <contour>
      <point x="317" y="608" type="move" name="_center"/>
    </contour>
  </outline>
</glyph>
<glyph name="uni0337" format="1">
  <advance width="556"/>
  <unicode hex="0337"/>
  <outline>
    <contour>
      <point x="371" y="467" type="line"/>
      <point x="381" y="450" type="line"/>
      <point x="477" y="600" type="line"/>
      <point x="460" y="608" type="line"/>
    </contour>
    <contour>
      <point x="376" y="458" type="line"/>
      <point x="367" y="475" type="line"/>
      <point x="142" y="41" type="line"/>
      <point x="152" y="23" type="line"/>
    </contour>
    <contour>
      <point x="140" y="23" type="line"/>
      <point x="130" y="41" type="line"/>
      <point x="52" y="-81" type="line"/>
      <point x="68" y="-90" type="line"/>
    </contour>
    <contour>
      <point x="265" y="259" type="move" name="_center"/>
    </contour>
  </outline>
</glyph>
<glyph name="uni0394" format="1">
  <advance width="556"/>
  <unicode hex="0394"/>
  <outline>
    <contour>
      <point x="265" y="722" type="line"/>
      <point x="249" y="722" type="line"/>
      <point x="16" y="0" type="line"/>
      <point x="90" y="2"/>
      <point x="164" y="3"/>
      <point x="238" y="3" type="curve" smooth="yes"/>
      <point x="311" y="3"/>
      <point x="385" y="2"/>
      <point x="458" y="0" type="curve"/>
    </contour>
    <contour>
      <point x="171" y="422" type="line"/>
      <point x="278" y="30" type="line"/>
      <point x="46" y="30" type="line"/>
    </contour>
  </outline>
</glyph>
<glyph name="uni0492" format="1">
  <advance width="575"/>
  <unicode hex="0492"/>
  <outline>
    <contour>
      <point x="9" y="296" type="line"/>
      <point x="414" y="296" type="line"/>
      <point x="418" y="316" type="line"/>
      <point x="13" y="316" type="line"/>
    </contour>
    <component base="uni0413"/>
  </outline>
</glyph>
<glyph name="uni0493" format="1">
  <advance width="432"/>
  <unicode hex="0493"/>
  <outline>
    <contour>
      <point x="0" y="257" type="line"/>
      <point x="431" y="257" type="line"/>
      <point x="435" y="277" type="line"/>
      <point x="4" y="277" type="line"/>
    </contour>
    <component base="uni0433"/>
  </outline>
</glyph>
<glyph name="uni04AF" format="1">
  <advance width="600"/>
  <unicode hex="04AF"/>
  <outline>
    <contour>
      <point x="386" y="212" type="line"/>
      <point x="298" y="68" type="line"/>
      <point x="162" y="130" type="line"/>
      <point x="111" y="-75" type="line" smooth="yes"/>
      <point x="93" y="-148"/>
      <point x="80" y="-158"/>
      <point x="19" y="-161" type="curve"/>
      <point x="14" y="-181" type="line"/>
      <point x="50" y="-179"/>
      <point x="119" y="-178"/>
      <point x="187" y="-178" type="curve" smooth="yes"/>
      <point x="249" y="-178"/>
      <point x="320" y="-179"/>
      <point x="359" y="-181" type="curve"/>
      <point x="364" y="-161" type="line"/>
      <point x="304" y="-158"/>
      <point x="296" y="-148"/>
      <point x="314" y="-75" type="curve" smooth="yes"/>
    </contour>
    <contour>
      <point x="608" y="519" type="line"/>
      <point x="593" y="516"/>
      <point x="554" y="515"/>
      <point x="530" y="515" type="curve" smooth="yes"/>
      <point x="506" y="515"/>
      <point x="454" y="516"/>
      <point x="426" y="519" type="curve"/>
      <point x="421" y="498" type="line"/>
      <point x="479" y="494"/>
      <point x="503" y="430"/>
      <point x="424" y="295" type="curve" smooth="yes"/>
      <point x="327" y="128" type="line"/>
      <point x="345" y="148" type="line"/>
      <point x="311" y="460" type="line" smooth="yes"/>
      <point x="307" y="499"/>
      <point x="340" y="498"/>
      <point x="376" y="498" type="curve"/>
      <point x="381" y="519" type="line"/>
      <point x="341" y="516"/>
      <point x="291" y="513"/>
      <point x="250" y="513" type="curve" smooth="yes"/>
      <point x="180" y="513"/>
      <point x="125" y="515"/>
      <point x="73" y="519" type="curve"/>
      <point x="68" y="498" type="line"/>
      <point x="82" y="498"/>
      <point x="105" y="493"/>
      <point x="112" y="442" type="curve" smooth="yes"/>
      <point x="176" y="0" type="line"/>
      <point x="209" y="3"/>
      <point x="242" y="3"/>
      <point x="273" y="0" type="curve"/>
      <point x="508" y="401" type="line" smooth="yes"/>
      <point x="546" y="466"/>
      <point x="576" y="489"/>
      <point x="603" y="498" type="curve"/>
    </contour>
  </outline>
</glyph>
<glyph name="uni04B0" format="1">
  <advance width="776"/>
  <unicode hex="04B0"/>
  <outline>
    <contour>
      <point x="611" y="291" type="line"/>
      <point x="118" y="291" type="line"/>
      <point x="118" y="271" type="line"/>
      <point x="611" y="271" type="line"/>
    </contour>
    <component base="uni04AE"/>
  </outline>
</glyph>
<glyph name="uni04CA" format="1">
  <advance width="615"/>
  <unicode hex="04CA"/>
  <outline>
    <contour>
      <point x="329" y="-198" type="line"/>
      <point x="470" y="-130"/>
      <point x="549" y="-34"/>
      <point x="570" y="20" type="curve"/>
      <point x="539" y="20" type="line" smooth="yes"/>
      <point x="472" y="20"/>
      <point x="459" y="33"/>
      <point x="479" y="106" type="curve" smooth="yes"/>
      <point x="599" y="533" type="line"/>
      <point x="547" y="524"/>
      <point x="487" y="520"/>
      <point x="418" y="519" type="curve"/>
      <point x="315" y="126" type="line" smooth="yes"/>
      <point x="290" y="30"/>
      <point x="319" y="15"/>
      <point x="371" y="-10" type="curve" smooth="yes"/>
      <point x="432" y="-40"/>
      <point x="426" y="-78"/>
      <point x="317" y="-181" type="curve"/>
    </contour>
    <contour>
      <point x="3" y="0" type="line"/>
      <point x="180" y="0" type="line"/>
      <point x="283" y="393" type="line" smooth="yes"/>
      <point x="300" y="457"/>
      <point x="289" y="533"/>
      <point x="184" y="533" type="curve" smooth="yes"/>
      <point x="115" y="533"/>
      <point x="72" y="500"/>
      <point x="47" y="430" type="curve" smooth="yes"/>
      <point x="19" y="352" type="line"/>
      <point x="38" y="352" type="line"/>
      <point x="61" y="413" type="line" smooth="yes"/>
      <point x="79" y="461"/>
      <point x="96" y="476"/>
      <point x="116" y="476" type="curve" smooth="yes"/>
      <point x="134" y="476"/>
      <point x="134" y="465"/>
      <point x="125" y="434" type="curve" smooth="yes"/>
    </contour>
    <contour>
      <point x="149" y="259" type="line"/>
      <point x="419" y="259" type="line"/>
      <point x="419" y="279" type="line"/>
      <point x="149" y="279" type="line"/>
    </contour>
  </outline>
</glyph>
<glyph name="uni04E9" format="1">
  <advance width="557"/>
  <unicode hex="04E9"/>
  <outline>
    <contour>
      <point x="438" y="277" type="line"/>
      <point x="106" y="277" type="line"/>
      <point x="102" y="257" type="line"/>
      <point x="434" y="257" type="line"/>
    </contour>
    <component base="uni043E"/>
  </outline>
</glyph>
<glyph name="acutecomb.loclPLK" format="1">
  <advance width="180"/>
  <outline>
    <contour>
      <point x="116" y="601" type="curve"/>
      <point x="129" y="595" type="line"/>
      <point x="199" y="669"/>
      <point x="249" y="696"/>
      <point x="272" y="731" type="curve" smooth="yes"/>
      <point x="292" y="765"/>
      <point x="297" y="806"/>
      <point x="259" y="829" type="curve" smooth="yes"/>
      <point x="217" y="854"/>
      <point x="175" y="829"/>
      <point x="158" y="797" type="curve" smooth="yes"/>
      <point x="136" y="759"/>
      <point x="140" y="704"/>
    </contour>
    <contour>
      <point x="140" y="519" type="move" name="_top"/>
    </contour>
    <contour>
      <point x="200" y="758" type="move" name="top"/>
    </contour>
  </outline>
</glyph>
<glyph name="f_f_j.liga" format="1">
  <advance width="943"/>
  <outline>
    <contour>
      <point x="46" y="498" type="line"/>
      <point x="411" y="498" type="line"/>
      <point x="417" y="518" type="line"/>
      <point x="52" y="518" type="line"/>
    </contour>
    <contour>
      <point x="143" y="-174" type="curve"/>
      <point x="338" y="548" type="line" smooth="yes"/>
      <point x="373" y="679"/>
      <point x="421" y="710"/>
      <point x="488" y="710" type="curve" smooth="yes"/>
      <point x="532" y="710"/>
      <point x="561" y="694"/>
      <point x="580" y="676" type="curve"/>
      <point x="589" y="690" type="line"/>
      <point x="561" y="716"/>
      <point x="513" y="742"/>
      <point x="434" y="742" type="curve" smooth="yes"/>
      <point x="371" y="742"/>
      <point x="315" y="726"/>
      <point x="271" y="695" type="curve" smooth="yes"/>
      <point x="221" y="660"/>
      <point x="171" y="590"/>
      <point x="139" y="470" type="curve" smooth="yes"/>
      <point x="-38" y="-188" type="line"/>
      <point x="18" y="-179"/>
      <point x="71" y="-175"/>
    </contour>
    <component base="f_j.liga" xOffset="330"/>
  </outline>
</glyph>
<glyph name="f_j.liga" format="1">
  <advance width="613"/>
  <outline>
    <contour>
      <point x="46" y="498" type="line"/>
      <point x="480" y="498" type="line"/>
      <point x="486" y="518" type="line"/>
      <point x="52" y="518" type="line"/>
    </contour>
    <contour>
      <point x="625" y="751" type="curve"/>
      <point x="649" y="754" type="line"/>
      <point x="629" y="776"/>
      <point x="585" y="782"/>
      <point x="547" y="782" type="curve" smooth="yes"/>
      <point x="439" y="782"/>
      <point x="358" y="771"/>
      <point x="281" y="730" type="curve" smooth="yes"/>
      <point x="206" y="688"/>
      <point x="157" y="616"/>
      <point x="127" y="504" type="curve" smooth="yes"/>
      <point x="-8" y="0" type="line"/>
      <point x="169" y="0" type="line"/>
      <point x="326" y="591" type="line" smooth="yes"/>
      <point x="359" y="714"/>
      <point x="419" y="765"/>
      <point x="552" y="765" type="curve" smooth="yes"/>
      <point x="587" y="765"/>
      <point x="604" y="758"/>
    </contour>
    <contour>
      <point x="457" y="676" type="curve" smooth="yes"/>
      <point x="457" y="633"/>
      <point x="487" y="610"/>
      <point x="545" y="610" type="curve" smooth="yes"/>
      <point x="614" y="610"/>
      <point x="668" y="651"/>
      <point x="668" y="714" type="curve" smooth="yes"/>
      <point x="668" y="750"/>
      <point x="637" y="777"/>
      <point x="579" y="777" type="curve" smooth="yes"/>
      <point x="509" y="777"/>
      <point x="457" y="748"/>
    </contour>
    <contour>
      <point x="276" y="-42" type="line" smooth="yes"/>
      <point x="251" y="-133"/>
      <point x="204" y="-168"/>
      <point x="151" y="-168" type="curve"/>
      <point x="146" y="-188" type="line"/>
      <point x="257" y="-188"/>
      <point x="321" y="-167"/>
      <point x="362" y="-138" type="curve" smooth="yes"/>
      <point x="425" y="-93"/>
      <point x="455" y="-37"/>
      <point x="487" y="80" type="curve" smooth="yes"/>
      <point x="613" y="533" type="line"/>
      <point x="561" y="524"/>
      <point x="501" y="519"/>
      <point x="432" y="518" type="curve"/>
    </contour>
  </outline>
</glyph>
<glyph name="hacek.case" format="1">
  <advance width="197"/>
  <outline>
    <contour>
      <point x="101" y="485" type="curve"/>
      <point x="115" y="481" type="line"/>
      <point x="221" y="573"/>
      <point x="287" y="659"/>
      <point x="287" y="707" type="curve" smooth="yes"/>
      <point x="287" y="712"/>
      <point x="287" y="717"/>
      <point x="286" y="719" type="curve"/>
      <point x="258" y="713"/>
      <point x="226" y="707"/>
      <point x="174" y="707" type="curve" smooth="yes"/>
      <point x="161" y="707"/>
      <point x="148" y="708"/>
      <point x="132" y="708" type="curve"/>
      <point x="129" y="687" type="line"/>
      <point x="147" y="687"/>
      <point x="152" y="680"/>
      <point x="152" y="668" type="curve" smooth="yes"/>
      <point x="152" y="644"/>
      <point x="139" y="578"/>
    </contour>
    <contour>
      <point x="77" y="708" type="move" name="_topright"/>
    </contour>
  </outline>
</glyph>
<glyph name="hookabovecomb.case" format="1">
  <advance width="374"/>
  <outline>
    <contour>
      <point x="275" y="739" type="curve"/>
      <point x="295" y="739" type="line"/>
      <point x="311" y="836"/>
      <point x="470" y="802"/>
      <point x="470" y="899" type="curve" smooth="yes"/>
      <point x="470" y="953"/>
      <point x="420" y="977"/>
      <point x="345" y="977" type="curve" smooth="yes"/>
      <point x="301" y="977"/>
      <point x="263" y="969"/>
      <point x="231" y="954" type="curve" smooth="yes"/>
      <point x="197" y="938"/>
      <point x="171" y="914"/>
      <point x="171" y="881" type="curve" smooth="yes"/>
      <point x="171" y="850"/>
      <point x="193" y="830"/>
      <point x="226" y="830" type="curve" smooth="yes"/>
      <point x="263" y="830"/>
      <point x="295" y="854"/>
      <point x="295" y="892" type="curve" smooth="yes"/>
      <point x="295" y="920"/>
      <point x="278" y="938"/>
      <point x="253" y="948" type="curve"/>
      <point x="260" y="952"/>
      <point x="277" y="957"/>
      <point x="298" y="957" type="curve" smooth="yes"/>
      <point x="337" y="957"/>
      <point x="361" y="939"/>
      <point x="361" y="893" type="curve" smooth="yes"/>
      <point x="361" y="814"/>
      <point x="289" y="822"/>
    </contour>
    <contour>
      <point x="247" y="708" type="move" name="_right"/>
    </contour>
    <contour>
      <point x="280" y="708" type="move" name="_top"/>
    </contour>
    <contour>
      <point x="345" y="977" type="move" name="top"/>
    </contour>
  </outline>
</glyph>
<glyph name="longs_h.liga" format="1">
  <advance width="905"/>
  <outline>
    <contour>
      <point x="46" y="498" type="line"/>
      <point x="219" y="498" type="line"/>
      <point x="225" y="518" type="line"/>
      <point x="52" y="518" type="line"/>
    </contour>
    <contour>
      <point x="487" y="143" type="curve"/>
      <point x="467" y="3" type="line"/>
      <point x="525" y="223"/>
      <point x="636" y="471"/>
      <point x="687" y="471" type="curve" smooth="yes"/>
      <point x="703" y="471"/>
      <point x="703" y="453"/>
      <point x="691" y="417" type="curve" smooth="yes"/>
      <point x="605" y="158" type="line" smooth="yes"/>
      <point x="566" y="41"/>
      <point x="607" y="-14"/>
      <point x="696" y="-14" type="curve" smooth="yes"/>
      <point x="749" y="-14"/>
      <point x="810" y="5"/>
      <point x="839" y="89" type="curve" smooth="yes"/>
      <point x="864" y="162" type="line"/>
      <point x="845" y="162" type="line"/>
      <point x="824" y="106" type="line" smooth="yes"/>
      <point x="803" y="50"/>
      <point x="783" y="43"/>
      <point x="771" y="43" type="curve" smooth="yes"/>
      <point x="759" y="43"/>
      <point x="747" y="52"/>
      <point x="759" y="85" type="curve" smooth="yes"/>
      <point x="858" y="382" type="line" smooth="yes"/>
      <point x="887" y="473"/>
      <point x="860" y="533"/>
      <point x="781" y="533" type="curve" smooth="yes"/>
      <point x="657" y="533"/>
      <point x="586" y="460"/>
    </contour>
    <contour>
      <point x="466" y="0" type="line"/>
      <point x="689" y="795" type="line"/>
      <point x="616" y="769"/>
      <point x="544" y="755"/>
      <point x="443" y="754" type="curve"/>
      <point x="434" y="733" type="line"/>
      <point x="479" y="733"/>
      <point x="486" y="712"/>
      <point x="477" y="667" type="curve" smooth="yes"/>
      <point x="289" y="0" type="line"/>
    </contour>
    <contour>
      <point x="437" y="733" type="curve"/>
      <point x="443" y="754" type="line"/>
      <point x="258" y="754"/>
      <point x="174" y="677"/>
      <point x="127" y="504" type="curve" smooth="yes"/>
      <point x="-59" y="-188" type="line"/>
      <point x="-3" y="-179"/>
      <point x="50" y="-175"/>
      <point x="122" y="-174" type="curve"/>
      <point x="343" y="654" type="line" smooth="yes"/>
      <point x="360" y="718"/>
      <point x="387" y="733"/>
    </contour>
  </outline>
</glyph>
<glyph name="longs_l.liga" format="1">
  <advance width="627"/>
  <outline>
    <contour>
      <point x="480" y="85" type="curve" smooth="yes"/>
      <point x="691" y="795" type="line"/>
      <point x="612" y="769"/>
      <point x="532" y="755"/>
      <point x="423" y="754" type="curve"/>
      <point x="416" y="733" type="line"/>
      <point x="481" y="733"/>
      <point x="492" y="712"/>
      <point x="479" y="667" type="curve" smooth="yes"/>
      <point x="326" y="158" type="line" smooth="yes"/>
      <point x="292" y="44"/>
      <point x="335" y="-14"/>
      <point x="420" y="-14" type="curve" smooth="yes"/>
      <point x="467" y="-14"/>
      <point x="532" y="3"/>
      <point x="562" y="89" type="curve" smooth="yes"/>
      <point x="587" y="162" type="line"/>
      <point x="568" y="162" type="line"/>
      <point x="547" y="106" type="line" smooth="yes"/>
      <point x="525" y="47"/>
      <point x="503" y="43"/>
      <point x="496" y="43" type="curve" smooth="yes"/>
      <point x="484" y="43"/>
      <point x="471" y="53"/>
    </contour>
    <contour>
      <point x="46" y="498" type="line"/>
      <point x="201" y="498" type="line"/>
      <point x="207" y="518" type="line"/>
      <point x="52" y="518" type="line"/>
    </contour>
    <contour>
      <point x="427" y="733" type="curve" smooth="yes"/>
      <point x="460" y="733" type="line"/>
      <point x="461" y="754" type="line"/>
      <point x="433" y="754" type="line" smooth="yes"/>
      <point x="351" y="754"/>
      <point x="289" y="737"/>
      <point x="242" y="703" type="curve" smooth="yes"/>
      <point x="187" y="663"/>
      <point x="152" y="598"/>
      <point x="127" y="504" type="curve" smooth="yes"/>
      <point x="-59" y="-188" type="line"/>
      <point x="-3" y="-179"/>
      <point x="50" y="-175"/>
      <point x="122" y="-174" type="curve"/>
      <point x="343" y="654" type="line" smooth="yes"/>
      <point x="352" y="687"/>
      <point x="363" y="707"/>
      <point x="377" y="719" type="curve" smooth="yes"/>
      <point x="390" y="729"/>
      <point x="406" y="733"/>
    </contour>
  </outline>
</glyph>
<glyph name="longs_longs.liga" format="1">
  <advance width="700"/>
  <outline>
    <contour>
      <point x="47" y="499" type="line"/>
      <point x="243" y="499" type="line"/>
      <point x="249" y="519" type="line"/>
      <point x="53" y="519" type="line"/>
    </contour>
    <contour>
      <point x="144" y="-174" type="curve"/>
      <point x="339" y="548" type="line" smooth="yes"/>
      <point x="375" y="674"/>
      <point x="428" y="710"/>
      <point x="490" y="710" type="curve" smooth="yes"/>
      <point x="528" y="710"/>
      <point x="547" y="700"/>
      <point x="562" y="688" type="curve"/>
      <point x="572" y="702" type="line"/>
      <point x="549" y="721"/>
      <point x="503" y="742"/>
      <point x="445" y="742" type="curve" smooth="yes"/>
      <point x="378" y="742"/>
      <point x="319" y="727"/>
      <point x="272" y="695" type="curve" smooth="yes"/>
      <point x="222" y="661"/>
      <point x="172" y="590"/>
      <point x="140" y="470" type="curve" smooth="yes"/>
      <point x="-37" y="-188" type="line"/>
      <point x="19" y="-179"/>
      <point x="72" y="-175"/>
    </contour>
    <component base="longs" xOffset="345"/>
  </outline>
</glyph>
<glyph name="longs_t.liga" format="1">
  <advance width="677"/>
  <outline>
    <contour>
      <point x="46" y="498" type="line"/>
      <point x="220" y="498" type="line"/>
      <point x="226" y="518" type="line"/>
      <point x="52" y="518" type="line"/>
    </contour>
    <contour>
      <point x="143" y="-174" type="curve"/>
      <point x="338" y="548" type="line" smooth="yes"/>
      <point x="371" y="670"/>
      <point x="410" y="749"/>
      <point x="516" y="749" type="curve" smooth="yes"/>
      <point x="590" y="749"/>
      <point x="641" y="710"/>
      <point x="670" y="666" type="curve"/>
      <point x="679" y="680" type="line"/>
      <point x="637" y="736"/>
      <point x="578" y="781"/>
      <point x="467" y="781" type="curve" smooth="yes"/>
      <point x="292" y="781"/>
      <point x="192" y="668"/>
      <point x="139" y="470" type="curve" smooth="yes"/>
      <point x="-38" y="-188" type="line"/>
      <point x="18" y="-179"/>
      <point x="71" y="-175"/>
    </contour>
    <component base="t" xOffset="312"/>
  </outline>
</glyph>
<glyph name="ohorn.smcp" format="1">
  <advance width="811"/>
  <outline>
    <contour>
      <point x="576" y="586" type="line"/>
      <point x="709" y="565"/>
      <point x="806" y="587"/>
      <point x="850" y="607" type="curve" smooth="yes"/>
      <point x="892" y="626"/>
      <point x="912" y="656"/>
      <point x="912" y="694" type="curve" smooth="yes"/>
      <point x="912" y="746"/>
      <point x="874" y="776"/>
      <point x="832" y="776" type="curve" smooth="yes"/>
      <point x="791" y="776"/>
      <point x="755" y="747"/>
      <point x="755" y="700" type="curve" smooth="yes"/>
      <point x="755" y="656"/>
      <point x="789" y="626"/>
      <point x="823" y="611" type="curve"/>
      <point x="826" y="620" type="line"/>
      <point x="763" y="599"/>
      <point x="694" y="590"/>
      <point x="571" y="606" type="curve"/>
    </contour>
    <component base="o.smcp"/>
  </outline>
</glyph>
<glyph name="strokelongoverlaycomb.case" format="1">
  <advance width="883"/>
  <outline>
    <contour>
      <point x="931" y="533" type="line"/>
      <point x="88" y="533" type="line"/>
      <point x="83" y="513" type="line"/>
      <point x="926" y="513" type="line"/>
    </contour>
    <contour>
      <point x="507" y="519" type="move" name="_center"/>
    </contour>
  </outline>
</glyph>
<glyph name="strokelongoverlaycomb.smcp" format="1">
  <advance width="884"/>
  <outline>
    <contour>
      <point x="912" y="454" type="line"/>
      <point x="69" y="454" type="line"/>
      <point x="64" y="434" type="line"/>
      <point x="907" y="434" type="line"/>
    </contour>
    <contour>
      <point x="488" y="444" type="move" name="_center"/>
    </contour>
  </outline>
</glyph>
<glyph name="tildecomb.smcp" format="1">
  <advance width="495"/>
  <outline>
    <contour>
      <point x="316" y="848" type="curve" smooth="yes"/>
      <point x="245" y="848"/>
      <point x="169" y="801"/>
      <point x="126" y="685" type="curve"/>
      <point x="144" y="680" type="line"/>
      <point x="170" y="722"/>
      <point x="195" y="738"/>
      <point x="226" y="738" type="curve" smooth="yes"/>
      <point x="303" y="738"/>
      <point x="322" y="665"/>
      <point x="427" y="665" type="curve" smooth="yes"/>
      <point x="498" y="665"/>
      <point x="574" y="712"/>
      <point x="617" y="828" type="curve"/>
      <point x="599" y="833" type="line"/>
      <point x="573" y="791"/>
      <point x="548" y="775"/>
      <point x="517" y="775" type="curve" smooth="yes"/>
      <point x="440" y="775"/>
      <point x="421" y="848"/>
    </contour>
    <contour>
      <point x="337" y="608" type="move" name="_top"/>
    </contour>
    <contour>
      <point x="392" y="828" type="move" name="top"/>
    </contour>
  </outline>
</glyph>
<glyph name="uhorn.smcp" format="1">
  <advance width="707"/>
  <outline>
    <contour>
      <point x="288" y="-14" type="curve" smooth="yes"/>
      <point x="396" y="-14"/>
      <point x="470" y="23"/>
      <point x="518" y="79" type="curve" smooth="yes"/>
      <point x="561" y="130"/>
      <point x="592" y="198"/>
      <point x="616" y="291" type="curve" smooth="yes"/>
      <point x="693" y="590" type="line"/>
      <point x="685" y="585" type="line"/>
      <point x="718" y="587"/>
      <point x="752" y="596"/>
      <point x="786" y="613" type="curve" smooth="yes"/>
      <point x="822" y="631"/>
      <point x="848" y="660"/>
      <point x="848" y="701" type="curve" smooth="yes"/>
      <point x="848" y="751"/>
      <point x="810" y="782"/>
      <point x="768" y="782" type="curve" smooth="yes"/>
      <point x="727" y="782"/>
      <point x="691" y="753"/>
      <point x="691" y="706" type="curve" smooth="yes"/>
      <point x="691" y="662"/>
      <point x="725" y="632"/>
      <point x="759" y="617" type="curve"/>
      <point x="762" y="625" type="line"/>
      <point x="730" y="607"/>
      <point x="697" y="604"/>
      <point x="646" y="604" type="curve" smooth="yes"/>
      <point x="616" y="604"/>
      <point x="603" y="606"/>
      <point x="573" y="608" type="curve"/>
      <point x="568" y="588" type="line"/>
      <point x="601" y="584"/>
      <point x="637" y="584"/>
      <point x="672" y="584" type="curve"/>
      <point x="670" y="590" type="line"/>
      <point x="590" y="280" type="line" smooth="yes"/>
      <point x="551" y="131"/>
      <point x="481" y="21"/>
      <point x="332" y="21" type="curve" smooth="yes"/>
      <point x="265" y="21"/>
      <point x="234" y="79"/>
      <point x="286" y="271" type="curve" smooth="yes"/>
      <point x="348" y="502" type="line" smooth="yes"/>
      <point x="367" y="575"/>
      <point x="382" y="585"/>
      <point x="451" y="588" type="curve"/>
      <point x="457" y="608" type="line"/>
      <point x="410" y="606"/>
      <point x="348" y="605"/>
      <point x="282" y="605" type="curve" smooth="yes"/>
      <point x="206" y="605"/>
      <point x="132" y="606"/>
      <point x="93" y="608" type="curve"/>
      <point x="87" y="588" type="line"/>
      <point x="154" y="585"/>
      <point x="165" y="575"/>
      <point x="146" y="502" type="curve" smooth="yes"/>
      <point x="89" y="288" type="line" smooth="yes"/>
      <point x="53" y="153"/>
      <point x="50" y="92"/>
      <point x="99" y="40" type="curve" smooth="yes"/>
      <point x="142" y="-6"/>
      <point x="224" y="-14"/>
    </contour>
    <contour>
      <point x="321" y="0" type="move" name="bottom"/>
    </contour>
    <contour>
      <point x="390" y="0" type="move" name="ogonek"/>
    </contour>
    <contour>
      <point x="471" y="608" type="move" name="top"/>
    </contour>
  </outline>
</glyph>
<glyph name="uni0259.smcp" format="1">
  <advance width="782"/>
  <outline>
    <contour>
      <point x="306" y="-14" type="curve" smooth="yes"/>
      <point x="583" y="-14"/>
      <point x="762" y="206"/>
      <point x="762" y="389" type="curve" smooth="yes"/>
      <point x="762" y="547"/>
      <point x="629" y="623"/>
      <point x="454" y="623" type="curve" smooth="yes"/>
      <point x="312" y="623"/>
      <point x="238" y="573"/>
      <point x="206" y="557" type="curve" smooth="yes"/>
      <point x="196" y="552"/>
      <point x="189" y="549"/>
      <point x="183" y="549" type="curve" smooth="yes"/>
      <point x="174" y="549"/>
      <point x="170" y="556"/>
      <point x="170" y="571" type="curve" smooth="yes"/>
      <point x="170" y="581"/>
      <point x="172" y="593"/>
      <point x="174" y="608" type="curve"/>
      <point x="151" y="608" type="line"/>
      <point x="140" y="555"/>
      <point x="124" y="484"/>
      <point x="92" y="358" type="curve"/>
      <point x="115" y="358" type="line"/>
      <point x="145" y="446"/>
      <point x="179" y="521"/>
      <point x="257" y="561" type="curve" smooth="yes"/>
      <point x="291" y="578"/>
      <point x="328" y="587"/>
      <point x="368" y="587" type="curve" smooth="yes"/>
      <point x="459" y="587"/>
      <point x="545" y="541"/>
      <point x="545" y="387" type="curve" smooth="yes"/>
      <point x="545" y="225"/>
      <point x="448" y="4"/>
      <point x="327" y="4" type="curve" smooth="yes"/>
      <point x="250" y="4"/>
      <point x="229" y="92"/>
      <point x="229" y="192" type="curve" smooth="yes"/>
      <point x="229" y="236"/>
      <point x="233" y="261"/>
      <point x="241" y="297" type="curve"/>
      <point x="581" y="297" type="line"/>
      <point x="583" y="316" type="line"/>
      <point x="32" y="316" type="line"/>
      <point x="26" y="294"/>
      <point x="18" y="262"/>
      <point x="18" y="221" type="curve" smooth="yes"/>
      <point x="18" y="58"/>
      <point x="147" y="-14"/>
    </contour>
    <contour>
      <point x="316" y="0" type="move" name="bottom"/>
    </contour>
    <contour>
      <point x="465" y="608" type="move" name="top"/>
    </contour>
  </outline>
</glyph>
<glyph name="uni0302.smcp" format="1">
  <advance width="492"/>
  <outline>
    <contour>
      <point x="356" y="724" type="curve"/>
      <point x="415" y="702"/>
      <point x="474" y="686"/>
      <point x="574" y="670" type="curve"/>
      <point x="578" y="684" type="line"/>
      <point x="499" y="727"/>
      <point x="464" y="778"/>
      <point x="439" y="856" type="curve"/>
      <point x="421" y="856" type="line"/>
      <point x="358" y="789"/>
      <point x="247" y="722"/>
      <point x="126" y="684" type="curve"/>
      <point x="131" y="670" type="line"/>
      <point x="216" y="684"/>
      <point x="294" y="703"/>
    </contour>
    <contour>
      <point x="357" y="608" type="move" name="_top"/>
    </contour>
    <contour>
      <point x="511" y="739" type="move" name="right"/>
    </contour>
    <contour>
      <point x="412" y="828" type="move" name="top"/>
    </contour>
  </outline>
</glyph>
<glyph name="uni0304.case" format="1">
  <advance width="473"/>
  <outline>
    <contour>
      <point x="598" y="844" type="line"/>
      <point x="166" y="844" type="line"/>
      <point x="160" y="819" type="line"/>
      <point x="592" y="819" type="line"/>
    </contour>
    <contour>
      <point x="400" y="819" type="move" name="_center"/>
    </contour>
    <contour>
      <point x="372" y="708" type="move" name="_top"/>
    </contour>
    <contour>
      <point x="427" y="928" type="move" name="top"/>
    </contour>
  </outline>
</glyph>
<glyph name="uni0306.case" format="1">
  <advance width="469"/>
  <outline>
    <contour>
      <point x="371" y="882" type="curve" smooth="yes"/>
      <point x="289" y="882"/>
      <point x="242" y="899"/>
      <point x="201" y="934" type="curve"/>
      <point x="186" y="926" type="line"/>
      <point x="202" y="836"/>
      <point x="252" y="763"/>
      <point x="350" y="763" type="curve" smooth="yes"/>
      <point x="460" y="763"/>
      <point x="564" y="843"/>
      <point x="616" y="929" type="curve"/>
      <point x="604" y="938" type="line"/>
      <point x="540" y="900"/>
      <point x="468" y="882"/>
    </contour>
    <contour>
      <point x="348" y="708" type="move" name="_top"/>
    </contour>
    <contour>
      <point x="392" y="882" type="move" name="top"/>
    </contour>
  </outline>
</glyph>
<glyph name="uni0306.smcp" format="1">
  <advance width="469"/>
  <outline>
    <contour>
      <point x="346" y="772" type="curve" smooth="yes"/>
      <point x="264" y="772"/>
      <point x="217" y="792"/>
      <point x="176" y="834" type="curve"/>
      <point x="161" y="826" type="line"/>
      <point x="177" y="736"/>
      <point x="227" y="663"/>
      <point x="325" y="663" type="curve" smooth="yes"/>
      <point x="435" y="663"/>
      <point x="539" y="743"/>
      <point x="591" y="829" type="curve"/>
      <point x="579" y="838" type="line"/>
      <point x="515" y="793"/>
      <point x="443" y="772"/>
    </contour>
    <contour>
      <point x="323" y="608" type="move" name="_top"/>
    </contour>
    <contour>
      <point x="360" y="751" type="move" name="top"/>
    </contour>
  </outline>
</glyph>
<glyph name="uni0307.smcp" format="1">
  <advance width="248"/>
  <outline>
    <contour>
      <point x="141" y="730" type="curve" smooth="yes"/>
      <point x="141" y="687"/>
      <point x="171" y="664"/>
      <point x="229" y="664" type="curve" smooth="yes"/>
      <point x="298" y="664"/>
      <point x="352" y="705"/>
      <point x="352" y="768" type="curve" smooth="yes"/>
      <point x="352" y="813"/>
      <point x="321" y="836"/>
      <point x="263" y="836" type="curve" smooth="yes"/>
      <point x="193" y="836"/>
      <point x="141" y="802"/>
    </contour>
    <contour>
      <point x="215" y="608" type="move" name="_top"/>
    </contour>
    <contour>
      <point x="270" y="828" type="move" name="top"/>
    </contour>
  </outline>
</glyph>
<glyph name="uni0308.smcp" format="1">
  <advance width="474"/>
  <outline>
    <contour>
      <point x="143" y="738" type="curve" smooth="yes"/>
      <point x="143" y="693"/>
      <point x="164" y="662"/>
      <point x="217" y="662" type="curve" smooth="yes"/>
      <point x="266" y="662"/>
      <point x="317" y="689"/>
      <point x="317" y="758" type="curve" smooth="yes"/>
      <point x="317" y="804"/>
      <point x="295" y="836"/>
      <point x="242" y="836" type="curve" smooth="yes"/>
      <point x="191" y="836"/>
      <point x="143" y="807"/>
    </contour>
    <contour>
      <point x="401" y="738" type="curve" smooth="yes"/>
      <point x="401" y="693"/>
      <point x="422" y="662"/>
      <point x="475" y="662" type="curve" smooth="yes"/>
      <point x="524" y="662"/>
      <point x="575" y="689"/>
      <point x="575" y="758" type="curve" smooth="yes"/>
      <point x="575" y="804"/>
      <point x="553" y="836"/>
      <point x="500" y="836" type="curve" smooth="yes"/>
      <point x="449" y="836"/>
      <point x="401" y="807"/>
    </contour>
    <contour>
      <point x="344" y="608" type="move" name="_top"/>
    </contour>
    <contour>
      <point x="399" y="828" type="move" name="top"/>
    </contour>
  </outline>
</glyph>
<glyph name="uni030A.smcp" format="1">
  <advance width="275"/>
  <outline>
    <contour>
      <point x="270" y="845" type="curve" smooth="yes"/>
      <point x="198" y="845"/>
      <point x="141" y="796"/>
      <point x="141" y="732" type="curve" smooth="yes"/>
      <point x="141" y="676"/>
      <point x="185" y="642"/>
      <point x="243" y="642" type="curve" smooth="yes"/>
      <point x="313" y="642"/>
      <point x="376" y="693"/>
      <point x="376" y="756" type="curve" smooth="yes"/>
      <point x="376" y="810"/>
      <point x="330" y="845"/>
    </contour>
    <contour>
      <point x="248" y="663" type="curve" smooth="yes"/>
      <point x="208" y="663"/>
      <point x="168" y="687"/>
      <point x="168" y="732" type="curve" smooth="yes"/>
      <point x="168" y="780"/>
      <point x="213" y="824"/>
      <point x="267" y="824" type="curve" smooth="yes"/>
      <point x="306" y="824"/>
      <point x="350" y="802"/>
      <point x="350" y="754" type="curve" smooth="yes"/>
      <point x="350" y="703"/>
      <point x="300" y="663"/>
    </contour>
    <contour>
      <point x="230" y="608" type="move" name="_top"/>
    </contour>
    <contour>
      <point x="285" y="828" type="move" name="top"/>
    </contour>
  </outline>
</glyph>
<glyph name="uni030B.case" format="1">
  <advance width="465"/>
  <outline>
    <contour>
      <point x="377" y="782" type="curve"/>
      <point x="386" y="772" type="line"/>
      <point x="481" y="808"/>
      <point x="533" y="812"/>
      <point x="568" y="835" type="curve" smooth="yes"/>
      <point x="600" y="856"/>
      <point x="611" y="893"/>
      <point x="590" y="923" type="curve" smooth="yes"/>
      <point x="568" y="957"/>
      <point x="523" y="964"/>
      <point x="494" y="943" type="curve" smooth="yes"/>
      <point x="459" y="917"/>
      <point x="443" y="865"/>
    </contour>
    <contour>
      <point x="150" y="782" type="curve"/>
      <point x="159" y="772" type="line"/>
      <point x="254" y="808"/>
      <point x="306" y="812"/>
      <point x="341" y="835" type="curve" smooth="yes"/>
      <point x="373" y="856"/>
      <point x="383" y="893"/>
      <point x="363" y="923" type="curve" smooth="yes"/>
      <point x="340" y="957"/>
      <point x="296" y="964"/>
      <point x="267" y="943" type="curve" smooth="yes"/>
      <point x="232" y="917"/>
      <point x="216" y="865"/>
    </contour>
    <contour>
      <point x="323" y="708" type="move" name="_top"/>
    </contour>
    <contour>
      <point x="378" y="928" type="move" name="top"/>
    </contour>
  </outline>
</glyph>
<glyph name="uni030B.smcp" format="1">
  <advance width="465"/>
  <outline>
    <contour>
      <point x="125" y="682" type="curve"/>
      <point x="134" y="672" type="line"/>
      <point x="229" y="708"/>
      <point x="281" y="712"/>
      <point x="316" y="735" type="curve" smooth="yes"/>
      <point x="348" y="756"/>
      <point x="359" y="793"/>
      <point x="338" y="823" type="curve" smooth="yes"/>
      <point x="316" y="857"/>
      <point x="271" y="864"/>
      <point x="242" y="843" type="curve" smooth="yes"/>
      <point x="207" y="817"/>
      <point x="191" y="765"/>
    </contour>
    <contour>
      <point x="352" y="682" type="curve"/>
      <point x="361" y="672" type="line"/>
      <point x="456" y="708"/>
      <point x="508" y="712"/>
      <point x="543" y="735" type="curve" smooth="yes"/>
      <point x="575" y="756"/>
      <point x="585" y="793"/>
      <point x="565" y="823" type="curve" smooth="yes"/>
      <point x="542" y="857"/>
      <point x="498" y="864"/>
      <point x="469" y="843" type="curve" smooth="yes"/>
      <point x="434" y="817"/>
      <point x="418" y="765"/>
    </contour>
    <contour>
      <point x="305" y="608" type="move" name="_top"/>
    </contour>
    <contour>
      <point x="360" y="828" type="move" name="top"/>
    </contour>
  </outline>
</glyph>
<glyph name="uni0328.case" format="1">
  <advance width="291"/>
  <outline>
    <contour>
      <point x="159" y="3" type="curve"/>
      <point x="141" y="3" type="line"/>
      <point x="29" y="-21"/>
      <point x="-75" y="-65"/>
      <point x="-75" y="-127" type="curve" smooth="yes"/>
      <point x="-75" y="-166"/>
      <point x="-39" y="-188"/>
      <point x="16" y="-188" type="curve" smooth="yes"/>
      <point x="70" y="-188"/>
      <point x="120" y="-172"/>
      <point x="173" y="-135" type="curve"/>
      <point x="162" y="-118" type="line"/>
      <point x="135" y="-131"/>
      <point x="110" y="-137"/>
      <point x="91" y="-137" type="curve" smooth="yes"/>
      <point x="71" y="-137"/>
      <point x="62" y="-129"/>
      <point x="62" y="-111" type="curve" smooth="yes"/>
      <point x="62" y="-74"/>
      <point x="93" y="-24"/>
    </contour>
    <contour>
      <point x="152" y="0" type="move" name="_ogonek"/>
    </contour>
  </outline>
</glyph>
<glyph name="uni0335.smcp" format="1">
  <advance width="472"/>
  <outline>
    <contour>
      <point x="467" y="319" type="line"/>
      <point x="35" y="319" type="line"/>
      <point x="29" y="294" type="line"/>
      <point x="461" y="294" type="line"/>
    </contour>
    <contour>
      <point x="248" y="307" type="move" name="_center"/>
    </contour>
  </outline>
</glyph>
<glyph name="uni0338.smcp" format="1">
  <advance width="811"/>
  <outline>
    <contour>
      <point x="621" y="566" type="line"/>
      <point x="631" y="546" type="line"/>
      <point x="771" y="694" type="line"/>
      <point x="756" y="707" type="line"/>
    </contour>
    <contour>
      <point x="190" y="62" type="line"/>
      <point x="177" y="80" type="line"/>
      <point x="29" y="-64" type="line"/>
      <point x="46" y="-78" type="line"/>
    </contour>
    <contour>
      <point x="198" y="63" type="line"/>
      <point x="211" y="45" type="line"/>
      <point x="620" y="536" type="line"/>
      <point x="610" y="556" type="line"/>
    </contour>
    <contour>
      <point x="423" y="315" type="move" name="_center"/>
    </contour>
  </outline>
</glyph>
<glyph name="uni0463.smcp" format="1">
  <advance width="681"/>
  <outline>
    <contour>
      <point x="51" y="461" type="line"/>
      <point x="486" y="461" type="line"/>
      <point x="490" y="481" type="line"/>
      <point x="55" y="481" type="line"/>
    </contour>
    <component base="uni044C.smcp"/>
  </outline>
</glyph>
<glyph name="uni0493.smcp" format="1">
  <advance width="583"/>
  <outline>
    <contour>
      <point x="0" y="257" type="line"/>
      <point x="425" y="257" type="line"/>
      <point x="429" y="277" type="line"/>
      <point x="4" y="277" type="line"/>
    </contour>
    <component base="uni0433.smcp"/>
  </outline>
</glyph>
<glyph name="uni04A3.smcp" format="1">
  <advance width="844"/>
  <outline>
    <contour>
      <point x="697" y="-190" type="curve"/>
      <point x="719" y="-190" type="line"/>
      <point x="724" y="-163"/>
      <point x="727" y="-148"/>
      <point x="732" y="-128" type="curve" smooth="yes"/>
      <point x="744" y="-80"/>
      <point x="757" y="-30"/>
      <point x="776" y="20" type="curve"/>
      <point x="745" y="20" type="line" smooth="yes"/>
      <point x="678" y="20"/>
      <point x="667" y="33"/>
      <point x="685" y="106" type="curve"/>
      <point x="513" y="3" type="line"/>
      <point x="659" y="3"/>
      <point x="709" y="-46"/>
    </contour>
    <component base="uni043D.smcp"/>
  </outline>
</glyph>
<glyph name="uni04B1.smcp" format="1">
  <advance width="714"/>
  <outline>
    <contour>
      <point x="549" y="227" type="line"/>
      <point x="56" y="227" type="line"/>
      <point x="52" y="207" type="line"/>
      <point x="545" y="207" type="line"/>
    </contour>
    <component base="uni04AF.smcp"/>
  </outline>
</glyph>
<glyph name="uni04E9.smcp" format="1">
  <advance width="811"/>
  <outline>
    <contour>
      <point x="137" y="296" type="line"/>
      <point x="652" y="296" type="line"/>
      <point x="656" y="316" type="line"/>
      <point x="141" y="316" type="line"/>
    </contour>
    <component base="uni043E.smcp"/>
  </outline>
</glyph>
